<?xml version="1.0" standalone="no"?>
<!DOCTYPE svg PUBLIC "-//W3C//DTD SVG 20010904//EN"
 "http://www.w3.org/TR/2001/REC-SVG-20010904/DTD/svg10.dtd">
<svg version="1.0" xmlns="http://www.w3.org/2000/svg"
 width="130.000000pt" height="45.000000pt" viewBox="0 0 130.000000 45.000000"
 preserveAspectRatio="xMidYMid meet">

<g transform="translate(0.000000,45.000000) scale(0.100000,-0.100000)"
fill="#000000" stroke="none">
<path d="M30 351 c0 -39 2 -41 30 -41 17 0 30 5 30 11 0 8 23 10 71 7 63 -3
74 -7 95 -31 36 -43 33 -106 -7 -146 -28 -28 -36 -31 -95 -31 -36 0 -64 4 -64
10 0 6 -13 10 -30 10 -28 0 -30 -2 -30 -40 l0 -40 93 0 c110 0 169 23 201 80
25 43 26 123 3 167 -33 62 -69 77 -189 82 l-108 3 0 -41z"/>
<path d="M30 292 c0 -4 8 -17 18 -29 14 -18 29 -23 82 -25 85 -4 84 -22 -2
-26 -58 -2 -68 -6 -82 -27 l-16 -25 89 0 c85 0 91 1 110 26 26 33 27 55 4 82
-15 16 -35 21 -110 26 -51 3 -93 2 -93 -2z"/>
<path d="M386 274 c-3 -9 -6 -42 -6 -75 0 -56 1 -59 25 -59 18 0 25 5 25 20 0
14 7 20 23 20 13 0 32 -9 42 -20 23 -25 122 -29 131 -5 8 20 77 20 94 0 12
-14 50 -21 50 -10 0 3 -16 37 -35 76 -32 63 -39 70 -63 67 -21 -2 -33 -15 -60
-68 -18 -36 -37 -66 -41 -68 -5 -1 -14 4 -21 13 -10 12 -10 19 -2 27 16 16 15
71 0 86 -7 7 -41 12 -84 12 -56 0 -73 -3 -78 -16z m134 -39 c0 -11 -12 -15
-45 -15 -33 0 -45 4 -45 15 0 11 12 15 45 15 33 0 45 -4 45 -15z m170 -17 c0
-5 -9 -8 -20 -8 -18 0 -19 3 -9 21 9 17 13 19 20 8 5 -8 9 -17 9 -21z"/>
<path d="M780 215 c0 -68 2 -75 20 -75 17 0 20 7 20 45 0 25 4 45 9 45 5 0 26
-20 47 -45 28 -34 43 -45 65 -45 l29 0 0 75 c0 68 -2 75 -19 75 -17 0 -20 -8
-23 -51 l-3 -51 -40 50 c-33 43 -46 51 -72 52 l-33 0 0 -75z"/>
<path d="M1000 215 c0 -60 3 -75 15 -75 12 0 15 15 15 75 0 60 -3 75 -15 75
-12 0 -15 -15 -15 -75z"/>
<path d="M1085 220 c-19 -38 -35 -72 -35 -75 0 -12 41 -4 46 10 8 21 90 21 98
0 5 -14 46 -22 46 -10 0 3 -16 37 -35 75 -29 58 -39 70 -60 70 -21 0 -31 -12
-60 -70z m75 4 c0 -8 -7 -14 -15 -14 -15 0 -21 21 -9 33 10 9 24 -2 24 -19z"/>
</g>
</svg>
